<svg width="19" height="19" viewBox="0 0 19 19" fill="none" xmlns="http://www.w3.org/2000/svg">
<path d="M7.81385 0.90541L1.81395 0.939508C1.54874 0.941015 1.29499 1.04782 1.10852 1.23641C0.92205 1.42501 0.818141 1.67996 0.819648 1.94517L0.853745 7.94508C0.855252 8.21029 0.962053 8.46404 1.15065 8.65051C1.33925 8.83698 1.5942 8.94089 1.85941 8.93938L7.85931 8.90528C8.12453 8.90377 8.37828 8.79697 8.56475 8.60837C8.75121 8.41978 8.85512 8.16483 8.85362 7.89961L8.81952 1.89971C8.81801 1.6345 8.71121 1.38075 8.52261 1.19428C8.33401 1.00781 8.07906 0.903903 7.81385 0.90541ZM6.84797 6.911L2.84803 6.93373L2.8253 2.93379L6.82523 2.91106L6.84797 6.911ZM17.8137 0.848582L11.8138 0.882679C11.5486 0.884186 11.2948 0.990987 11.1084 1.17959C10.9219 1.36818 10.818 1.62313 10.8195 1.88835L10.8536 7.88825C10.8551 8.15346 10.9619 8.40721 11.1505 8.59368C11.3391 8.78015 11.594 8.88406 11.8593 8.88255L17.8592 8.84845C18.1244 8.84695 18.3781 8.74014 18.5646 8.55155C18.7511 8.36295 18.855 8.108 18.8535 7.84279L18.8194 1.84288C18.8178 1.57767 18.711 1.32392 18.5225 1.13745C18.3339 0.950984 18.0789 0.847075 17.8137 0.848582ZM16.8478 6.85417L12.8479 6.8769L12.8251 2.87696L16.8251 2.85423L16.8478 6.85417ZM7.87068 10.9052L1.87078 10.9393C1.60557 10.9409 1.35181 11.0477 1.16535 11.2363C0.978879 11.4249 0.874969 11.6798 0.876476 11.945L0.910573 17.9449C0.912081 18.2101 1.01888 18.4639 1.20748 18.6503C1.39608 18.8368 1.65103 18.9407 1.91624 18.9392L7.91614 18.9051C8.18136 18.9036 8.43511 18.7968 8.62157 18.6082C8.80804 18.4196 8.91195 18.1647 8.91044 17.8995L8.87635 11.8995C8.87484 11.6343 8.76804 11.3806 8.57944 11.1941C8.39084 11.0077 8.13589 10.9037 7.87068 10.9052ZM6.90479 16.9108L2.90486 16.9336L2.88213 12.9336L6.88206 12.9109L6.90479 16.9108ZM14.8706 10.8655C12.6646 10.878 10.8808 12.6822 10.8934 14.8881C10.9059 17.0941 12.7101 18.8779 14.916 18.8653C17.122 18.8528 18.9058 17.0486 18.8932 14.8427C18.8807 12.6367 17.0765 10.8529 14.8706 10.8655ZM14.9047 16.8654C13.8017 16.8716 12.8996 15.9798 12.8933 14.8768C12.8871 13.7738 13.779 12.8717 14.8819 12.8654C15.9849 12.8592 16.887 13.7511 16.8933 14.854C16.8995 15.957 16.0076 16.8591 14.9047 16.8654Z" fill="black"/>
</svg>
