<svg width="52" height="60" viewBox="0 0 52 60" fill="none" xmlns="http://www.w3.org/2000/svg">
<path d="M26.9587 51.1619C19.6491 52.9113 15.8778 57.2682 14.9739 59.2049L14.8766 42.0811L15.6229 42.0769L24.467 42.0266C32.3963 41.9816 43.035 35.7272 42.9714 24.5376C42.9146 14.5346 36.2198 9.97668 32.819 9.0413C16.1877 4.46679 8.76437 15.8875 8.80077 22.2919L8.92729 44.5548C-2.0974 36.566 -0.451155 22.1412 1.75005 15.9274C9.70144 -1.68464 26.6608 -1.25449 35.827 1.70466C42.8546 3.97338 52.0024 12.287 50.9144 26.9323C49.5243 45.6435 36.0956 48.9751 26.9587 51.1619Z" fill="#2D4059"/>
<ellipse cx="25.4548" cy="24.8476" rx="10.6741" ry="10.0642" transform="rotate(-0.325605 25.4548 24.8476)" fill="#EA5455"/>
<rect x="14.7793" y="24.6038" width="10.3692" height="10.3692" transform="rotate(-0.325605 14.7793 24.6038)" fill="#EA5455"/>
</svg>
